<svg width="46" height="46" viewBox="0 0 46 46" fill="none" xmlns="http://www.w3.org/2000/svg">
<path d="M38.2666 4.37354H8.39996C6.34103 4.37354 4.66663 6.04794 4.66663 8.10687V30.5069C4.66663 32.5658 6.34103 34.2402 8.39996 34.2402H14V41.2719L25.717 34.2402H38.2666C40.3256 34.2402 42 32.5658 42 30.5069V8.10687C42 6.04794 40.3256 4.37354 38.2666 4.37354ZM38.2666 30.5069H24.6829L17.7333 34.6751V30.5069H8.39996V8.10687H38.2666V30.5069ZM14 13.7069H32.6666V17.4402H14V13.7069ZM14 21.1735H27.0666V24.9069H14V21.1735Z" fill="black"/>
<path d="M38.2666 4.37354H8.39996C6.34103 4.37354 4.66663 6.04794 4.66663 8.10687V30.5069C4.66663 32.5658 6.34103 34.2402 8.39996 34.2402H14V41.2719L25.717 34.2402H38.2666C40.3256 34.2402 42 32.5658 42 30.5069V8.10687C42 6.04794 40.3256 4.37354 38.2666 4.37354ZM38.2666 30.5069H24.6829L17.7333 34.6751V30.5069H8.39996V8.10687H38.2666V30.5069ZM14 13.7069H32.6666V17.4402H14V13.7069ZM14 21.1735H27.0666V24.9069H14V21.1735Z" fill="black"/>
</svg>
