<svg width="31" height="31" viewBox="0 0 31 31" fill="none" xmlns="http://www.w3.org/2000/svg">
<path d="M25.6227 5.17725H5.71155C4.33892 5.17725 3.22266 6.29351 3.22266 7.66613V22.5995C3.22266 23.9721 4.33892 25.0884 5.71155 25.0884H25.6227C26.9953 25.0884 28.1115 23.9721 28.1115 22.5995V7.66613C28.1115 6.29351 26.9953 5.17725 25.6227 5.17725ZM25.6227 7.66613V8.30205L15.6671 16.0462L5.71155 8.30329V7.66613H25.6227ZM5.71155 22.5995V11.4542L14.903 18.6036C15.1209 18.7747 15.39 18.8678 15.6671 18.8678C15.9442 18.8678 16.2133 18.7747 16.4312 18.6036L25.6227 11.4542L25.6251 22.5995H5.71155Z" fill="black"/>
</svg>
