<svg width="31" height="31" viewBox="0 0 31 31" fill="none" xmlns="http://www.w3.org/2000/svg">
<path d="M22.7687 15.5671C22.6533 15.4515 22.5161 15.3597 22.3652 15.2971C22.2142 15.2345 22.0524 15.2023 21.8889 15.2023C21.7255 15.2023 21.5636 15.2345 21.4127 15.2971C21.2617 15.3597 21.1246 15.4515 21.0091 15.5671L19.0255 17.5508C18.1058 17.277 16.3897 16.6548 15.3021 15.5671C14.2144 14.4795 13.5922 12.7634 13.3184 11.8438L15.3021 9.86011C15.4177 9.74464 15.5095 9.60749 15.5721 9.45653C15.6347 9.30556 15.6669 9.14372 15.6669 8.98028C15.6669 8.81685 15.6347 8.65501 15.5721 8.50404C15.5095 8.35307 15.4177 8.21593 15.3021 8.10046L10.3243 3.12268C10.2088 3.00702 10.0717 2.91526 9.92071 2.85265C9.76975 2.79004 9.60791 2.75781 9.44447 2.75781C9.28104 2.75781 9.1192 2.79004 8.96823 2.85265C8.81726 2.91526 8.68012 3.00702 8.56465 3.12268L5.18972 6.49762C4.71683 6.97051 4.45052 7.62011 4.46047 8.2834C4.4891 10.0555 4.95825 16.2105 9.8091 21.0614C14.6599 25.9122 20.815 26.3801 22.5883 26.41H22.6231C23.2802 26.41 23.9012 26.1511 24.3716 25.6807L27.7465 22.3058C27.8622 22.1903 27.9539 22.0532 28.0166 21.9022C28.0792 21.7512 28.1114 21.5894 28.1114 21.426C28.1114 21.2625 28.0792 21.1007 28.0166 20.9497C27.9539 20.7988 27.8622 20.6616 27.7465 20.5462L22.7687 15.5671ZM22.6107 23.9198C21.0576 23.8937 15.7439 23.4768 11.5687 19.3005C7.37994 15.1117 6.97425 9.77922 6.94936 8.25726L9.44447 5.76215L12.6626 8.98028L11.0535 10.5894C10.9073 10.7355 10.7997 10.9158 10.7406 11.114C10.6815 11.3121 10.6727 11.5219 10.7151 11.7243C10.7449 11.8674 11.4754 15.261 13.5412 17.3268C15.607 19.3926 19.0006 20.123 19.1437 20.1529C19.346 20.1964 19.5559 20.1883 19.7543 20.1294C19.9526 20.0705 20.1329 19.9626 20.2786 19.8157L21.8889 18.2066L25.1071 21.4247L22.6107 23.9198Z" fill="black"/>
</svg>
