<svg width="46" height="46" viewBox="0 0 46 46" fill="none" xmlns="http://www.w3.org/2000/svg">
<path d="M33.5852 23.5875C33.412 23.414 33.2063 23.2764 32.9799 23.1825C32.7534 23.0885 32.5107 23.0402 32.2655 23.0402C32.0204 23.0402 31.7776 23.0885 31.5511 23.1825C31.3247 23.2764 31.119 23.414 30.9458 23.5875L27.9703 26.563C26.5908 26.1523 24.0167 25.219 22.3852 23.5875C20.7538 21.956 19.8204 19.3819 19.4098 18.0024L22.3852 15.027C22.5587 14.8538 22.6964 14.6481 22.7903 14.4216C22.8842 14.1952 22.9326 13.9524 22.9326 13.7072C22.9326 13.4621 22.8842 13.2193 22.7903 12.9929C22.6964 12.7664 22.5587 12.5607 22.3852 12.3875L14.9186 4.92084C14.7454 4.74735 14.5397 4.6097 14.3132 4.51579C14.0867 4.42187 13.844 4.37354 13.5988 4.37354C13.3537 4.37354 13.1109 4.42187 12.8845 4.51579C12.658 4.6097 12.4523 4.74735 12.2791 4.92084L7.21671 9.98324C6.50737 10.6926 6.10791 11.667 6.12284 12.6619C6.16577 15.32 6.86951 24.5526 14.1458 31.8288C21.422 39.1051 30.6546 39.807 33.3146 39.8518H33.3668C34.3524 39.8518 35.2839 39.4635 35.9895 38.7579L41.0519 33.6955C41.2254 33.5223 41.3631 33.3166 41.457 33.0901C41.5509 32.8637 41.5992 32.6209 41.5992 32.3758C41.5992 32.1306 41.5509 31.8879 41.457 31.6614C41.3631 31.435 41.2254 31.2292 41.0519 31.056L33.5852 23.5875ZM33.3482 36.1166C31.0186 36.0774 23.0479 35.452 16.7852 29.1875C10.502 22.9043 9.89351 14.9056 9.85617 12.6227L13.5988 8.88004L18.426 13.7072L16.0124 16.1208C15.793 16.3401 15.6317 16.6105 15.5431 16.9078C15.4544 17.205 15.4412 17.5196 15.5047 17.8232C15.5495 18.0379 16.6452 23.1283 19.7439 26.227C22.8426 29.3256 27.933 30.4214 28.1476 30.4662C28.4511 30.5314 28.766 30.5193 29.0635 30.4309C29.361 30.3425 29.6315 30.1807 29.85 29.9603L32.2655 27.5467L37.0927 32.3739L33.3482 36.1166Z" fill="black"/>
</svg>
