<svg width="46" height="46" viewBox="0 0 46 46" fill="none" xmlns="http://www.w3.org/2000/svg">
<path d="M37.6668 8.10693H7.80011C5.74117 8.10693 4.06677 9.78133 4.06677 11.8403V34.2403C4.06677 36.2992 5.74117 37.9736 7.80011 37.9736H37.6668C39.7257 37.9736 41.4001 36.2992 41.4001 34.2403V11.8403C41.4001 9.78133 39.7257 8.10693 37.6668 8.10693ZM37.6668 11.8403V12.7941L22.7334 24.4104L7.80011 12.796V11.8403H37.6668ZM7.80011 34.2403V17.5224L21.5873 28.2464C21.9142 28.5031 22.3178 28.6427 22.7334 28.6427C23.1491 28.6427 23.5527 28.5031 23.8796 28.2464L37.6668 17.5224L37.6705 34.2403H7.80011Z" fill="black"/>
</svg>
