<svg width="30" height="30" viewBox="0 0 30 30" fill="none" xmlns="http://www.w3.org/2000/svg">
<path d="M27.2569 12.5519H26.25V12.5001H15V17.5001H22.0644C21.0338 20.4107 18.2644 22.5001 15 22.5001C10.8581 22.5001 7.5 19.1419 7.5 15.0001C7.5 10.8582 10.8581 7.50006 15 7.50006C16.9119 7.50006 18.6513 8.22131 19.9756 9.39944L23.5113 5.86381C21.2788 3.78319 18.2925 2.50006 15 2.50006C8.09688 2.50006 2.5 8.09694 2.5 15.0001C2.5 21.9032 8.09688 27.5001 15 27.5001C21.9031 27.5001 27.5 21.9032 27.5 15.0001C27.5 14.1619 27.4138 13.3438 27.2569 12.5519Z" fill="#FFC107"/>
<path d="M3.94141 9.18194L8.04828 12.1938C9.15953 9.44256 11.8508 7.50006 15.0002 7.50006C16.912 7.50006 18.6514 8.22131 19.9758 9.39944L23.5114 5.86381C21.2789 3.78319 18.2927 2.50006 15.0002 2.50006C10.1989 2.50006 6.03516 5.21069 3.94141 9.18194Z" fill="#FF3D00"/>
<path d="M15 27.5001C18.2287 27.5001 21.1625 26.2644 23.3806 24.2551L19.5118 20.9813C18.2568 21.9319 16.6968 22.5001 15 22.5001C11.7487 22.5001 8.98808 20.4269 7.94808 17.5338L3.87183 20.6744C5.94058 24.7226 10.1418 27.5001 15 27.5001Z" fill="#4CAF50"/>
<path d="M27.2569 12.5519H26.25V12.5001H15V17.5001H22.0644C21.5694 18.8982 20.67 20.1038 19.51 20.9819L19.5119 20.9807L23.3806 24.2544C23.1069 24.5032 27.5 21.2501 27.5 15.0001C27.5 14.1619 27.4138 13.3438 27.2569 12.5519Z" fill="#1976D2"/>
</svg>
