<svg width="23" height="23" viewBox="0 0 23 23" fill="none" xmlns="http://www.w3.org/2000/svg">
<path d="M9.19495 20.9792L8.721 17.9932C8.42082 17.8827 8.10485 17.7326 7.77308 17.543C7.44131 17.3534 7.14903 17.1559 6.89626 16.9505L4.0999 18.2302L1.896 14.3438L4.45537 12.4716C4.42377 12.3294 4.40403 12.1675 4.39613 11.9858C4.38823 11.8041 4.38428 11.6422 4.38428 11.5C4.38428 11.3578 4.38823 11.1959 4.39613 11.0142C4.40403 10.8325 4.42377 10.6706 4.45537 10.5284L1.896 8.65626L4.0999 4.7698L6.89626 6.04949C7.14903 5.84411 7.44131 5.64663 7.77308 5.45704C8.10485 5.26746 8.42082 5.12527 8.721 5.03048L9.19495 2.02084H13.5554L14.0293 5.00678C14.3295 5.11737 14.6494 5.26351 14.9891 5.44519C15.3288 5.62688 15.6171 5.82831 15.8541 6.04949L18.6504 4.7698L20.8543 8.65626L18.295 10.481C18.3266 10.639 18.3463 10.8088 18.3542 10.9905C18.3621 11.1722 18.366 11.342 18.366 11.5C18.366 11.658 18.3621 11.8239 18.3542 11.9977C18.3463 12.1715 18.3266 12.3373 18.295 12.4953L20.8543 14.3438L18.6504 18.2302L15.8541 16.9505C15.6013 17.1559 15.313 17.3573 14.9891 17.5548C14.6652 17.7523 14.3453 17.8984 14.0293 17.9932L13.5554 20.9792H9.19495ZM11.3752 14.5807C12.2283 14.5807 12.955 14.2806 13.5554 13.6802C14.1557 13.0799 14.4559 12.3531 14.4559 11.5C14.4559 10.6469 14.1557 9.92015 13.5554 9.3198C12.955 8.71946 12.2283 8.41928 11.3752 8.41928C10.522 8.41928 9.7953 8.71946 9.19495 9.3198C8.59461 9.92015 8.29443 10.6469 8.29443 11.5C8.29443 12.3531 8.59461 13.0799 9.19495 13.6802C9.7953 14.2806 10.522 14.5807 11.3752 14.5807Z" fill="white"/>
</svg>
